# xmcd CD database file
#
# Track frame offsets:
#	150
#	51092
#	112627
#	147282
#	211147
#	224307
#
# Disc length: 3982 seconds
#
# Revision: 0
# Processed by: cddbd v1.4PL0 Copyright (c) Steve Scherf et al.
# Submitted via: CDex 1.50
#
DISCID=4f0f8c06
DTITLE=FEDAYIEN - FEDAYIEN
DYEAR=2000
DGENRE=Jazz
TTITLE0=RIVER - UMI
TTITLE1=UME ROCKO
TTITLE2=NEAPOLITAN
TTITLE3=CAPPLYSO
TTITLE4=RIVER SPACE
TTITLE5=TOKI
EXTD=YEAR: 2000
EXTT0=
EXTT1=
EXTT2=
EXTT3=
EXTT4=
EXTT5=
PLAYORDER=
